<svg xmlns="http://www.w3.org/2000/svg" version="1.1" xmlns:xlink="http://www.w3.org/1999/xlink" width="512" height="512" x="0" y="0" viewBox="0 0 24 24" style="enable-background:new 0 0 512 512" xml:space="preserve" class=""><g><path d="M12 0A12.013 12.013 0 0 0 0 12c-.125 9.574 11.159 15.429 18.9 9.817a1.5 1.5 0 1 0-1.727-2.453C11.42 23.582 2.863 19.146 3 12 3.472.07 20.529.072 21 12v1.5a1.5 1.5 0 0 1-3 0V12c-.252-7.929-11.749-7.928-12 0a6.017 6.017 0 0 0 10.078 4.388A4.5 4.5 0 0 0 24 13.5V12A12.013 12.013 0 0 0 12 0Zm0 15a3 3 0 0 1 0-6 3 3 0 0 1 0 6Z" fill="#000000" data-original="#000000" class=""></path></g></svg>