<svg xmlns="http://www.w3.org/2000/svg" version="1.1" xmlns:xlink="http://www.w3.org/1999/xlink" xmlns:svgjs="http://svgjs.com/svgjs" width="512" height="512" x="0" y="0" viewBox="0 0 24 24" style="enable-background:new 0 0 512 512" xml:space="preserve" class=""><g><path d="M0 3.5C0 2.67.67 2 1.5 2h16c.83 0 1.5.67 1.5 1.5S18.33 5 17.5 5h-16C.67 5 0 4.33 0 3.5ZM17.5 18h-16c-.83 0-1.5.67-1.5 1.5S.67 21 1.5 21h16c.83 0 1.5-.67 1.5-1.5s-.67-1.5-1.5-1.5Zm5-8h-16c-.83 0-1.5.67-1.5 1.5S5.67 13 6.5 13h16c.83 0 1.5-.67 1.5-1.5s-.67-1.5-1.5-1.5Z" fill="#000000" data-original="#000000" class=""></path></g></svg>