<svg xmlns="http://www.w3.org/2000/svg" version="1.1" xmlns:xlink="http://www.w3.org/1999/xlink" xmlns:svgjs="http://svgjs.com/svgjs" width="512" height="512" x="0" y="0" viewBox="0 0 24 24" style="enable-background:new 0 0 512 512" xml:space="preserve" class=""><g><path d="M23.32 6.35A3.467 3.467 0 0 0 20.56 5H8.48l-.26-1.96A3.512 3.512 0 0 0 4.75 0H4.5C3.67 0 3 .67 3 1.5S3.67 3 4.5 3h.25c.25 0 .46.19.5.43l1.54 11.53A3.512 3.512 0 0 0 10.26 18h7.25c2.53 0 4.72-1.71 5.34-4.17l1.12-4.49c.26-1.05.03-2.15-.64-3Zm-2.27 2.27-1.12 4.49A2.504 2.504 0 0 1 17.5 15h-7.25c-.25 0-.46-.19-.5-.43L8.87 8h11.68c.21 0 .34.12.39.19.06.07.14.22.09.43ZM0 7.5C0 6.67.67 6 1.5 6h1C3.33 6 4 6.67 4 7.5S3.33 9 2.5 9h-1C.67 9 0 8.33 0 7.5Zm5 8c0 .83-.67 1.5-1.5 1.5h-2C.67 17 0 16.33 0 15.5S.67 14 1.5 14h2c.83 0 1.5.67 1.5 1.5Zm6 6.5c0 1.1-.9 2-2 2s-2-.9-2-2 .9-2 2-2 2 .9 2 2Zm9 0c0 1.1-.9 2-2 2s-2-.9-2-2 .9-2 2-2 2 .9 2 2ZM0 11.5c0-.83.67-1.5 1.5-1.5h1.46c.83 0 1.5.67 1.5 1.5S3.79 13 2.96 13H1.5C.67 13 0 12.33 0 11.5Z" fill="#000000" data-original="#000000" class=""></path></g></svg>