<!-- <svg xmlns="http://www.w3.org/2000/svg" version="1.1" xmlns:xlink="http://www.w3.org/1999/xlink" xmlns:svgjs="http://svgjs.com/svgjs" width="512" height="512" x="0" y="0" viewBox="0 0 24 24" style="enable-background:new 0 0 512 512" xml:space="preserve" class=""><g><path d="M18.5 1h-13A5.506 5.506 0 0 0 0 6.5v11A5.506 5.506 0 0 0 5.5 23h13a5.506 5.506 0 0 0 5.5-5.5v-11A5.506 5.506 0 0 0 18.5 1Zm0 3a2.476 2.476 0 0 1 1.643.631l-6.5 6.5a2.373 2.373 0 0 1-3.278 0l-6.5-6.5A2.476 2.476 0 0 1 5.5 4Zm0 16h-13A2.5 2.5 0 0 1 3 17.5V8.017l5.239 5.239a5.317 5.317 0 0 0 7.521 0L21 8.017V17.5a2.5 2.5 0 0 1-2.5 2.5Z" fill="#000000" data-original="#000000" class=""></path></g></svg> -->
<!-- <svg xmlns="http://www.w3.org/2000/svg" version="1.1" xmlns:xlink="http://www.w3.org/1999/xlink" xmlns:svgjs="http://svgjs.com/svgjs" width="512" height="512" x="0" y="0" viewBox="0 0 512 512" style="enable-background:new 0 0 512 512" xml:space="preserve" class=""><g><path d="M244.317 299.051c-90.917 8.218-160.183 85.041-158.976 176.32V480c0 17.673 14.327 32 32 32 17.673 0 32-14.327 32-32v-5.909c-.962-56.045 40.398-103.838 96-110.933 58.693-5.82 110.992 37.042 116.812 95.735.344 3.47.518 6.954.521 10.441V480c0 17.673 14.327 32 32 32 17.673 0 32-14.327 32-32v-10.667c-.104-94.363-76.685-170.774-171.047-170.67a171.4 171.4 0 0 0-11.31.388zM256.008 256c70.692 0 128-57.308 128-128S326.7 0 256.008 0s-128 57.308-128 128c.07 70.663 57.337 127.929 128 128zm0-192c35.346 0 64 28.654 64 64s-28.654 64-64 64-64-28.654-64-64 28.654-64 64-64z" fill="#000000" data-original="#000000" class=""></path></g></svg> -->
<svg xmlns="http://www.w3.org/2000/svg" version="1.1" xmlns:xlink="http://www.w3.org/1999/xlink" xmlns:svgjs="http://svgjs.com/svgjs" width="512" height="512" x="0" y="0" viewBox="0 0 24 24" style="enable-background:new 0 0 512 512" xml:space="preserve" class=""><g><path d="M12 0A12.013 12.013 0 0 0 0 12c-.125 9.574 11.159 15.429 18.9 9.817a1.5 1.5 0 1 0-1.727-2.453C11.42 23.582 2.863 19.146 3 12 3.472.07 20.529.072 21 12v1.5a1.5 1.5 0 0 1-3 0V12c-.252-7.929-11.749-7.928-12 0a6.017 6.017 0 0 0 10.078 4.388A4.5 4.5 0 0 0 24 13.5V12A12.013 12.013 0 0 0 12 0Zm0 15a3 3 0 0 1 0-6 3 3 0 0 1 0 6Z" fill="#000000" data-original="#000000" class=""></path></g></svg>