<svg id="SvgjsSvg1026" width="256" height="256" xmlns="http://www.w3.org/2000/svg" version="1.1" xmlns:xlink="http://www.w3.org/1999/xlink" xmlns:svgjs="http://svgjs.com/svgjs">
  <defs id="SvgjsDefs1027"></defs>
  <g id="SvgjsG1028">
    <svg xmlns="http://www.w3.org/2000/svg" viewBox="0 0 32 32" width="256" height="256">
      <path d="M29,17.312a1,1,0,0,1-1,.929l-.072,0a4.355,4.355,0,0,1-3.348-1.715,10.6,10.6,0,0,1-3.9,2.073,2.345,2.345,0,0,0,1.132,1.374,1,1,0,0,1-.468,1.884.99.99,0,0,1-.466-.116,4.336,4.336,0,0,1-2.154-2.7,17.351,17.351,0,0,1-5.446,0,4.336,4.336,0,0,1-2.154,2.7,1,1,0,0,1-1.351-.417,1,1,0,0,1,.417-1.351A2.352,2.352,0,0,0,11.322,18.6a10.609,10.609,0,0,1-3.9-2.073,4.355,4.355,0,0,1-3.348,1.715l-.072,0a1,1,0,0,1-.07-2,2.252,2.252,0,0,0,2.11-1.283,6.821,6.821,0,0,1-1.147-3.816,1,1,0,0,1,2,0c0,4.2,4.721,6.108,9.108,6.108,3.134,0,6.429-.981,8.061-3.068l.016-.022a4.811,4.811,0,0,0,1.031-3.018,1,1,0,0,1,2,0,6.825,6.825,0,0,1-1.148,3.817,2.257,2.257,0,0,0,2.111,1.282A1,1,0,0,1,29,17.312Z" fill="#000000" class="color000 svgShape"></path>
    </svg>
  </g>
</svg>

