<!-- <svg id="SvgjsSvg1012" width="256" height="256" xmlns="http://www.w3.org/2000/svg" version="1.1" xmlns:xlink="http://www.w3.org/1999/xlink" xmlns:svgjs="http://svgjs.com/svgjs"><defs id="SvgjsDefs1013"></defs><g id="SvgjsG1014"><svg xmlns="http://www.w3.org/2000/svg" viewBox="0 0 22 22" width="256" height="256"><path d="M10,20A10,10,0,1,1,20,10,10.0114,10.0114,0,0,1,10,20ZM10,2a8,8,0,1,0,8,8A8.0092,8.0092,0,0,0,10,2Z" fill="#000000" class="color000 svgShape"></path><path d="M21,22a.9967.9967,0,0,1-.707-.293l-4.64-4.64a1,1,0,0,1,1.4141-1.4141l4.64,4.64A1,1,0,0,1,21,22Z" fill="#000000" class="color000 svgShape"></path></svg></g></svg> -->
<svg xmlns="http://www.w3.org/2000/svg" version="1.1" xmlns:xlink="http://www.w3.org/1999/xlink" xmlns:svgjs="http://svgjs.com/svgjs" width="512" height="512" x="0" y="0" viewBox="0 0 513.749 513.749" style="enable-background:new 0 0 512 512" xml:space="preserve" class=""><g><path d="m504.352 459.061-99.435-99.477c74.402-99.427 54.115-240.344-45.312-314.746S119.261-9.277 44.859 90.15-9.256 330.494 90.171 404.896c79.868 59.766 189.565 59.766 269.434 0l99.477 99.477c12.501 12.501 32.769 12.501 45.269 0 12.501-12.501 12.501-32.769 0-45.269l.001-.043zm-278.635-73.365c-88.366 0-160-71.634-160-160s71.634-160 160-160 160 71.634 160 160c-.094 88.326-71.673 159.906-160 160z" fill="#000000" data-original="#000000" class=""></path></g></svg>