<svg xmlns="http://www.w3.org/2000/svg" version="1.1" xmlns:xlink="http://www.w3.org/1999/xlink" xmlns:svgjs="http://svgjs.com/svgjs" width="512" height="512" x="0" y="0" viewBox="0 0 24 24" style="enable-background:new 0 0 512 512" xml:space="preserve" class=""><g><path d="M17.582 8.461a1.5 1.5 0 0 1-.043 2.121l-4.605 4.424c-.668.659-1.552.989-2.438.989s-1.774-.33-2.451-.991l-1.547-1.388a1.5 1.5 0 1 1 2.006-2.231l1.592 1.43c.237.23.555.232.746.042l4.62-4.438a1.499 1.499 0 0 1 2.121.042ZM24 12c0 6.617-5.383 12-12 12S0 18.617 0 12 5.383 0 12 0s12 5.383 12 12Zm-3 0c0-4.962-4.037-9-9-9s-9 4.038-9 9 4.037 9 9 9 9-4.038 9-9Z" fill="#000000" data-original="#000000" class=""></path></g></svg>