<svg xmlns="http://www.w3.org/2000/svg" version="1.1" xmlns:xlink="http://www.w3.org/1999/xlink" xmlns:svgjs="http://svgjs.com/svgjs" width="512" height="512" x="0" y="0" viewBox="0 0 24 24" style="enable-background:new 0 0 512 512" xml:space="preserve" class=""><g><path d="M17.25 1.851A6.568 6.568 0 0 0 12 4.558a6.568 6.568 0 0 0-5.25-2.707A7.035 7.035 0 0 0 0 9.126c0 4.552 4.674 9.425 8.6 12.712a5.29 5.29 0 0 0 6.809 0c3.922-3.287 8.6-8.16 8.6-12.712a7.035 7.035 0 0 0-6.759-7.275Zm-3.773 17.688a2.294 2.294 0 0 1-2.955 0C5.742 15.531 3 11.736 3 9.126a4.043 4.043 0 0 1 3.75-4.275 4.043 4.043 0 0 1 3.75 4.275 1.5 1.5 0 0 0 3 0 4.043 4.043 0 0 1 3.75-4.275A4.043 4.043 0 0 1 21 9.126c0 2.61-2.742 6.405-7.523 10.413Z" fill="#000000" data-original="#000000" class=""></path></g></svg>